<svg
  width="37"
  height="37"
  viewBox="0 0 37 37"
  fill="none"
  xmlns="http://www.w3.org/2000/svg"
>
  <circle cx="18.5" cy="18.5" r="18.5" fill="#FCFAFA" fill-opacity="0.15" />
  <circle
    cx="18.5"
    cy="18.5"
    r="17.5"
    stroke="white"
    stroke-opacity="0.4"
    stroke-width="2"
  />
  <path
    d="M9.29289 17.7929C8.90237 18.1834 8.90237 18.8166 9.29289 19.2071L15.6569 25.5711C16.0474 25.9616 16.6805 25.9616 17.0711 25.5711C17.4616 25.1805 17.4616 24.5474 17.0711 24.1569L11.4142 18.5L17.0711 12.8431C17.4616 12.4526 17.4616 11.8195 17.0711 11.4289C16.6805 11.0384 16.0474 11.0384 15.6569 11.4289L9.29289 17.7929ZM28 19.5C28.5523 19.5 29 19.0523 29 18.5C29 17.9477 28.5523 17.5 28 17.5V19.5ZM10 19.5H28V17.5H10V19.5Z"
    fill="white"
    fill-opacity="0.4"
  />
</svg>
